<svg xmlns="http://www.w3.org/2000/svg" xmlns:xlink="http://www.w3.org/1999/xlink" width="158.333" height="130" viewBox="0 0 158.333 130"><defs><style>.a{fill-rule:evenodd;}.b{filter:url(#a);}</style><filter id="a" x="0" y="0" width="158.333" height="130" filterUnits="userSpaceOnUse"><feOffset dy="10" input="SourceAlpha"/><feGaussianBlur stdDeviation="7.5" result="b"/><feFlood flood-opacity="0.251"/><feComposite operator="in" in2="b"/><feComposite in="SourceGraphic"/></filter></defs><g transform="translate(22.5 12.5)"><path d="M47.914,31.27A17.77,17.77,0,1,1,30.145,13.5a17.77,17.77,0,0,1,17.77,17.77Z" transform="translate(26.522 14.763)"/><g class="b" transform="matrix(1, 0, 0, 1, -22.5, -12.5)"><path class="a" d="M14.167,18.667A14.167,14.167,0,0,0,0,32.833v42.5A14.167,14.167,0,0,0,14.167,89.5h85a14.167,14.167,0,0,0,14.167-14.167v-42.5A14.167,14.167,0,0,0,99.167,18.667h-8.3a14.167,14.167,0,0,1-10.014-4.152L74.986,8.649A14.167,14.167,0,0,0,64.968,4.5h-16.6A14.167,14.167,0,0,0,38.351,8.652l-5.865,5.865a14.167,14.167,0,0,1-10.017,4.149Zm3.542,14.167a3.542,3.542,0,1,0-3.542-3.542A3.542,3.542,0,0,0,17.708,32.833Zm63.75,17.708A24.792,24.792,0,1,1,56.667,25.75,24.792,24.792,0,0,1,81.458,50.542Z" transform="translate(22.5 8)"/></g></g></svg>