<svg xmlns="http://www.w3.org/2000/svg" xmlns:xlink="http://www.w3.org/1999/xlink" width="145" height="145" viewBox="0 0 145 145"><defs><style>.a{fill:#94c120;}.b{filter:url(#a);}</style><filter id="a" x="0" y="0" width="145" height="145" filterUnits="userSpaceOnUse"><feOffset dy="10" input="SourceAlpha"/><feGaussianBlur stdDeviation="7.5" result="b"/><feFlood flood-opacity="0.2"/><feComposite operator="in" in2="b"/><feComposite in="SourceGraphic"/></filter></defs><g class="b" transform="matrix(1, 0, 0, 1, 0, 0)"><path class="a" d="M82.5,79.95A10.03,10.03,0,0,0,73,73H68V58a5,5,0,0,0-5-5H33V43H43a5,5,0,0,0,5-5V28H58A10,10,0,0,0,68,18V15.95a39.911,39.911,0,0,1,14.5,64M48,92.65a39.808,39.808,0,0,1-33.95-48.6L38,68v5A10,10,0,0,0,48,83M53,3a50,50,0,1,0,50,50A50,50,0,0,0,53,3Z" transform="translate(19.5 9.5)"/></g></svg>