<svg xmlns="http://www.w3.org/2000/svg" xmlns:xlink="http://www.w3.org/1999/xlink" width="56.836" height="86.464" viewBox="0 0 56.836 86.464"><defs><style>.a{fill:#f0f0f2;}.b{filter:url(#a);}</style><filter id="a" x="0" y="0" width="56.836" height="86.464" filterUnits="userSpaceOnUse"><feOffset dx="2" dy="10" input="SourceAlpha"/><feGaussianBlur stdDeviation="7.5" result="b"/><feFlood flood-opacity="0.2"/><feComposite operator="in" in2="b"/><feComposite in="SourceGraphic"/></filter></defs><g class="b" transform="matrix(1, 0, 0, 1, 0, 0)"><path class="a" d="M15.755,45.275c0-2.861,2.65-5.181,5.918-5.181s5.918,2.319,5.918,5.181-2.65,5.181-5.918,5.181-5.918-2.319-5.918-5.181Zm.579-31.109A4.523,4.523,0,0,1,18.823,9.7a6.009,6.009,0,0,1,5.673,0,4.523,4.523,0,0,1,2.49,4.463l-2.07,18.169a3.128,3.128,0,0,1-3.255,2.617,3.128,3.128,0,0,1-3.255-2.616Z" transform="translate(4.74 3.51)"/></g></svg>