<svg xmlns="http://www.w3.org/2000/svg" xmlns:xlink="http://www.w3.org/1999/xlink" width="160" height="139.3" viewBox="0 0 160 139.3">
  <defs>
    <filter id="Tracé_4" x="13.45" y="0" width="133.1" height="139.3" filterUnits="userSpaceOnUse">
      <feOffset dx="2" dy="10" input="SourceAlpha"/>
      <feGaussianBlur stdDeviation="7.5" result="blur"/>
      <feFlood flood-opacity="0.2"/>
      <feComposite operator="in" in2="blur"/>
      <feComposite in="SourceGraphic"/>
    </filter>
    <filter id="Tracé_3" x="0" y="33.698" width="160" height="71.903" filterUnits="userSpaceOnUse">
      <feOffset dx="2" dy="10" input="SourceAlpha"/>
      <feGaussianBlur stdDeviation="7.5" result="blur-2"/>
      <feFlood flood-opacity="0.2"/>
      <feComposite operator="in" in2="blur-2"/>
      <feComposite in="SourceGraphic"/>
    </filter>
  </defs>
  <g id="Flèches_qui_tournent" data-name="Flèches qui tournent" transform="translate(20.5 12.5)">
    <g transform="matrix(1, 0, 0, 1, -20.5, -12.5)" filter="url(#Tracé_4)">
      <path id="Tracé_4-2" data-name="Tracé 4" d="M48.55,12.363c-12.423-.01-24.006,6.711-30.776,17.858a3.521,3.521,0,0,1-5.007,1.027,4.1,4.1,0,0,1-1.137-5.319C22.267,8.436,42.387.511,61.084,6.45S92.6,30.776,92.6,51.647a3.683,3.683,0,1,1-7.348,0c0-21.7-16.435-39.284-36.709-39.284ZM8.171,47.719a3.806,3.806,0,0,1,3.671,3.928c-.006,17.4,10.682,32.727,26.268,37.676s32.356-1.663,41.217-16.25a3.617,3.617,0,0,1,3.3-1.9,3.668,3.668,0,0,1,3.137,2.191,4.162,4.162,0,0,1-.293,4c-10.638,17.493-30.758,25.418-49.454,19.48S4.5,72.518,4.5,51.647a4.072,4.072,0,0,1,1.077-2.78,3.552,3.552,0,0,1,2.6-1.148Z" transform="translate(29.45 8)" fill="#94c120" fill-rule="evenodd"/>
    </g>
    <g transform="matrix(1, 0, 0, 1, -20.5, -12.5)" filter="url(#Tracé_3)">
      <path id="Tracé_3-2" data-name="Tracé 3" d="M20.514,21.207a3.771,3.771,0,0,0-5.088,0L1.052,34.652a3.214,3.214,0,0,0,0,4.759,3.776,3.776,0,0,0,5.088,0L17.971,28.342,29.8,39.414a3.776,3.776,0,0,0,5.088,0,3.214,3.214,0,0,0,0-4.759L20.517,21.21Zm93.429-6.722a3.771,3.771,0,0,0-5.088,0L97.026,25.557,85.2,14.485a3.776,3.776,0,0,0-5.088,0,3.214,3.214,0,0,0,0,4.759L94.48,32.689a3.771,3.771,0,0,0,5.088,0l14.374-13.445a3.21,3.21,0,0,0,0-4.759Z" transform="translate(20.5 32.7)" fill="#94c120" fill-rule="evenodd"/>
    </g>
  </g>
</svg>
