<svg xmlns="http://www.w3.org/2000/svg" xmlns:xlink="http://www.w3.org/1999/xlink" width="95" height="95" viewBox="0 0 95 95">
  <defs>
    <filter id="instagram-square" x="0" y="0" width="95" height="95" filterUnits="userSpaceOnUse">
      <feOffset dx="3" dy="10" input="SourceAlpha"/>
      <feGaussianBlur stdDeviation="7.5" result="blur"/>
      <feFlood flood-opacity="0.247"/>
      <feComposite operator="in" in2="blur"/>
      <feComposite in="SourceGraphic"/>
    </filter>
  </defs>
  <g transform="matrix(1, 0, 0, 1, 0, 0)" filter="url(#instagram-square)">
    <path id="instagram-square-2" data-name="instagram-square" d="M25,21.3a5.952,5.952,0,1,0,5.956,5.953A5.952,5.952,0,0,0,25,21.3Zm13.919-4.576a6.027,6.027,0,0,0-3.394-3.394C33.181,12.4,27.6,12.61,25,12.61s-8.175-.216-10.525.717a6.027,6.027,0,0,0-3.394,3.394c-.924,2.344-.717,7.93-.717,10.529s-.21,8.176.719,10.529a6.027,6.027,0,0,0,3.394,3.394c2.344.925,7.924.717,10.525.717s8.175.216,10.524-.717a6.027,6.027,0,0,0,3.394-3.394c.932-2.344.717-7.93.717-10.529s.217-8.176-.716-10.529ZM25,36.4a9.141,9.141,0,1,1,6.475-2.677A9.152,9.152,0,0,1,25,36.4Zm9.529-16.551a2.126,2.126,0,1,1,1.514-.625,2.137,2.137,0,0,1-1.514.625ZM44.643,2.25H5.357A5.357,5.357,0,0,0,0,7.607V46.893A5.357,5.357,0,0,0,5.357,52.25H44.643A5.357,5.357,0,0,0,50,46.893V7.607A5.357,5.357,0,0,0,44.643,2.25ZM42.732,34.617c-.144,2.86-.8,5.4-2.886,7.478s-4.621,2.749-7.478,2.886c-2.948.167-11.784.167-14.732,0-2.86-.144-5.386-.8-7.478-2.886S7.41,37.472,7.273,34.617c-.167-2.949-.167-11.787,0-14.732.144-2.86.789-5.4,2.886-7.478s4.629-2.741,7.478-2.878c2.948-.167,11.784-.167,14.732,0,2.86.144,5.394.8,7.478,2.886S42.6,17.037,42.732,19.9C42.9,22.834,42.9,31.666,42.732,34.617Z" transform="translate(19.5 10.25)" fill="#1b2920"/>
  </g>
</svg>
