<svg xmlns="http://www.w3.org/2000/svg" xmlns:xlink="http://www.w3.org/1999/xlink" width="135.148" height="135.148" viewBox="0 0 135.148 135.148"><defs><style>.a{filter:url(#c);}.b{filter:url(#a);}</style><filter id="a" x="14.805" y="0" width="120.343" height="119.024" filterUnits="userSpaceOnUse"><feOffset dy="10" input="SourceAlpha"/><feGaussianBlur stdDeviation="7.5" result="b"/><feFlood flood-opacity="0.247"/><feComposite operator="in" in2="b"/><feComposite in="SourceGraphic"/></filter><filter id="c" x="0" y="29.361" width="106.243" height="105.787" filterUnits="userSpaceOnUse"><feOffset dy="10" input="SourceAlpha"/><feGaussianBlur stdDeviation="7.5" result="d"/><feFlood flood-opacity="0.247"/><feComposite operator="in" in2="d"/><feComposite in="SourceGraphic"/></filter></defs><g transform="translate(22.5 12.5)"><g class="b" transform="matrix(1, 0, 0, 1, -22.5, -12.5)"><path d="M76.369,62.445a5.243,5.243,0,0,1,.715-2.644,6.765,6.765,0,0,1,.456-.672,35.123,35.123,0,0,0,5.982-19.567c.065-19.98-16.793-36.187-37.639-36.187-18.18,0-33.349,12.374-36.9,28.8a34.765,34.765,0,0,0-.8,7.412A36.757,36.757,0,0,0,45.232,76.231a44.639,44.639,0,0,0,10.229-1.667c2.45-.672,4.876-1.559,5.5-1.8a5.757,5.757,0,0,1,2.016-.37,5.6,5.6,0,0,1,2.188.435l12.287,4.355a2.949,2.949,0,0,0,.844.216,1.727,1.727,0,0,0,1.735-1.735,2.816,2.816,0,0,0-.108-.586Z" transform="translate(29.13 9.13)"/></g><g class="a" transform="matrix(1, 0, 0, 1, -22.5, -12.5)"><path d="M61.992,58.193c-.78.216-1.778.456-2.86.693a39.882,39.882,0,0,1-7.369.974A36.757,36.757,0,0,1,14.71,23.217a41.169,41.169,0,0,1,.324-4.638c.129-.931.28-1.865.5-2.774.216-.974.478-1.951.758-2.9L14.556,14.44A32.254,32.254,0,0,0,3.375,38.691,31.9,31.9,0,0,0,8.75,56.461c.5.758.78,1.344.693,1.735S6.864,71.63,6.864,71.63A1.734,1.734,0,0,0,7.449,73.3a1.771,1.771,0,0,0,1.106.391,1.562,1.562,0,0,0,.629-.129L21.342,68.77a3.4,3.4,0,0,1,2.6.043,36.487,36.487,0,0,0,13.153,2.6A34.036,34.036,0,0,0,63.123,59.475s.693-.952,1.495-2.08c-.8.28-1.71.564-2.623.8Z" transform="translate(19.13 28.96)"/></g></g></svg>