<svg xmlns="http://www.w3.org/2000/svg" xmlns:xlink="http://www.w3.org/1999/xlink" width="140.499" height="119.163" viewBox="0 0 140.499 119.163"><defs><style>.a{filter:url(#a);}</style><filter id="a" x="0" y="0" width="140.499" height="119.163" filterUnits="userSpaceOnUse"><feOffset dx="2" dy="10" input="SourceAlpha"/><feGaussianBlur stdDeviation="7.5" result="b"/><feFlood flood-opacity="0.2"/><feComposite operator="in" in2="b"/><feComposite in="SourceGraphic"/></filter></defs><g class="a" transform="matrix(1, 0, 0, 1, 0, 0)"><path d="M90.563,1.407a2.747,2.747,0,0,0-4.693-.174C80.728,9.04,71.525,13.906,61.013,13.906H47.748c-17.576,0-31.836,12.455-31.836,27.807a24.91,24.91,0,0,0,.249,2.968c10.578-6.618,25.851-12.237,47.5-12.237a2.51,2.51,0,0,1,2.653,2.317,2.51,2.51,0,0,1-2.653,2.317C21.98,37.078,4.305,59.4.392,67.782c-1.093,2.361.2,5.054,2.9,6.025a5.61,5.61,0,0,0,6.93-2.5c.249-.521,3.465-6.938,11.923-13.12,5.372,6.359,15.586,12.425,29,11.181C77.181,67.71,95.5,47.318,95.5,22.35A46.988,46.988,0,0,0,90.56,1.409Z" transform="translate(20.5 12.5)"/></g></svg>