<svg xmlns="http://www.w3.org/2000/svg" xmlns:xlink="http://www.w3.org/1999/xlink" width="95" height="95" viewBox="0 0 95 95">
  <defs>
    <filter id="linkedin" x="0" y="0" width="95" height="95" filterUnits="userSpaceOnUse">
      <feOffset dx="3" dy="10" input="SourceAlpha"/>
      <feGaussianBlur stdDeviation="7.5" result="blur"/>
      <feFlood flood-opacity="0.247"/>
      <feComposite operator="in" in2="blur"/>
      <feComposite in="SourceGraphic"/>
    </filter>
  </defs>
  <g transform="matrix(1, 0, 0, 1, 0, 0)" filter="url(#linkedin)">
    <path id="linkedin-2" data-name="linkedin" d="M46.429,2.25H3.56A3.587,3.587,0,0,0,0,5.855v42.79a3.587,3.587,0,0,0,3.56,3.6H46.429A3.6,3.6,0,0,0,50,48.645V5.855A3.6,3.6,0,0,0,46.429,2.25ZM15.111,45.107H7.7V21.245h7.422V45.107Zm-3.7-27.121a4.3,4.3,0,1,1,4.3-4.3,4.3,4.3,0,0,1-4.3,4.3ZM42.89,45.107H35.479V33.5c0-2.768-.056-6.329-3.851-6.329-3.862,0-4.452,3.013-4.452,6.127V45.107H19.765V21.245h7.11V24.5h.1A7.808,7.808,0,0,1,34,20.653c7.5,0,8.9,4.944,8.9,11.373V45.107Z" transform="translate(19.5 10.25)" fill="#1b2920"/>
  </g>
</svg>
