<svg xmlns="http://www.w3.org/2000/svg" xmlns:xlink="http://www.w3.org/1999/xlink" width="145" height="145" viewBox="0 0 145 145"><defs><style>.a{fill:#94c120;}.b{filter:url(#a);}</style><filter id="a" x="0" y="0" width="145" height="145" filterUnits="userSpaceOnUse"><feOffset dx="2" dy="10" input="SourceAlpha"/><feGaussianBlur stdDeviation="7.5" result="b"/><feFlood flood-opacity="0.2"/><feComposite operator="in" in2="b"/><feComposite in="SourceGraphic"/></filter></defs><g class="b" transform="matrix(1, 0, 0, 1, 0, 0)"><path class="a" d="M93,3H13A10.029,10.029,0,0,0,3,13v90L23,83H93a9.965,9.965,0,0,0,10-10V13A10,10,0,0,0,93,3m0,70H23L13,83V13H93M78,48H68V38H78M58,48H48V38H58M38,48H28V38H38" transform="translate(17.5 9.5)"/></g></svg>