<svg xmlns="http://www.w3.org/2000/svg" xmlns:xlink="http://www.w3.org/1999/xlink" width="170.001" height="145" viewBox="0 0 170.001 145"><defs><style>.a{fill:#94c120;}.b{filter:url(#a);}</style><filter id="a" x="0" y="0" width="170.001" height="145" filterUnits="userSpaceOnUse"><feOffset dy="10" input="SourceAlpha"/><feGaussianBlur stdDeviation="7.5" result="b"/><feFlood flood-opacity="0.2"/><feComposite operator="in" in2="b"/><feComposite in="SourceGraphic"/></filter></defs><g class="b" transform="matrix(1, 0, 0, 1, 0, 0)"><path class="a" d="M25,18.749a9.375,9.375,0,1,0-9.375-9.375A9.375,9.375,0,0,0,25,18.749Zm75,0a9.375,9.375,0,1,0-9.375-9.375A9.375,9.375,0,0,0,100,18.749ZM124.55,91.424l-8.593-21.485L107.929,79l-.392,3.555,5.41,13.517a6.245,6.245,0,0,0,5.8,3.927,6.06,6.06,0,0,0,2.323-.448,6.245,6.245,0,0,0,3.476-8.125ZM117.87,50.45l-3.614-15.666a12.663,12.663,0,0,0-7.323-8.771,12.048,12.048,0,0,0-10.958.646,21.414,21.414,0,0,0-9.4,11.6l-2.2,6.621L81.25,46.873V28.124A3.134,3.134,0,0,0,78.125,25H46.876a3.134,3.134,0,0,0-3.125,3.125V46.873L40.605,44.88,38.4,38.259a21.252,21.252,0,0,0-9.4-11.6,12.052,12.052,0,0,0-10.958-.646,12.655,12.655,0,0,0-7.323,8.771L7.127,50.446A12.5,12.5,0,0,0,9.94,61.519L23.064,76.341l1.972,18.086A6.263,6.263,0,0,0,31.252,100c.236,0,.448-.021.684-.038a6.241,6.241,0,0,0,5.528-6.9L35.491,74.938A12.487,12.487,0,0,0,32.446,68.1l-8.458-9.569L27.425,44.8l1.33,3.983a12.644,12.644,0,0,0,4.785,6.368L43.519,61.5a8.3,8.3,0,0,0,3.361.976H78.128a8.358,8.358,0,0,0,3.361-.976l9.979-6.347a12.545,12.545,0,0,0,4.785-6.368l1.33-3.983,3.437,13.729L92.562,68.1a12.487,12.487,0,0,0-3.045,6.837L87.545,93.063a6.256,6.256,0,0,0,5.528,6.9c.236.021.448.038.684.038a6.253,6.253,0,0,0,6.212-5.566l1.972-18.086,13.125-14.822a12.566,12.566,0,0,0,2.812-11.073ZM9.044,69.939.451,91.424a6.249,6.249,0,1,0,11.6,4.649l5.41-13.517L17.068,79,9.041,69.939Z" transform="translate(22.5 12.5)"/></g></svg>