<svg xmlns="http://www.w3.org/2000/svg" xmlns:xlink="http://www.w3.org/1999/xlink" width="140" height="140" viewBox="0 0 140 140"><defs><style>.a{fill-rule:evenodd;}.b{filter:url(#a);}</style><filter id="a" x="0" y="0" width="140" height="140" filterUnits="userSpaceOnUse"><feOffset dy="10" input="SourceAlpha"/><feGaussianBlur stdDeviation="7.5" result="b"/><feFlood flood-opacity="0.247"/><feComposite operator="in" in2="b"/><feComposite in="SourceGraphic"/></filter></defs><g transform="translate(22.5 12.5)"><path d="M70.7,36.539C66.475,29.765,57.187,22.5,38.2,22.5S9.924,29.757,5.7,36.542a41.687,41.687,0,0,0,65,0Z" transform="translate(9.083 38.01)"/><path class="a" d="M29.217,43.9A17.773,17.773,0,1,0,11.444,26.13,17.773,17.773,0,0,0,29.217,43.9Z" transform="translate(18.22 11.182)"/><g class="b" transform="matrix(1, 0, 0, 1, -22.5, -12.5)"><path class="a" d="M47.5,5.938A41.563,41.563,0,1,0,89.063,47.5,41.562,41.562,0,0,0,47.5,5.938ZM0,47.5A47.5,47.5,0,1,1,47.5,95,47.5,47.5,0,0,1,0,47.5Z" transform="translate(22.5 12.5)"/></g></g></svg>