<svg xmlns="http://www.w3.org/2000/svg" xmlns:xlink="http://www.w3.org/1999/xlink" width="157.494" height="145" viewBox="0 0 157.494 145"><defs><style>.a{fill:#94c120;}.b{filter:url(#a);}</style><filter id="a" x="0" y="0" width="157.494" height="145" filterUnits="userSpaceOnUse"><feOffset dy="10" input="SourceAlpha"/><feGaussianBlur stdDeviation="7.5" result="b"/><feFlood flood-opacity="0.2"/><feComposite operator="in" in2="b"/><feComposite in="SourceGraphic"/></filter></defs><g class="b" transform="matrix(1, 0, 0, 1, 0, 0)"><path class="a" d="M109.371,43.75h-5.763a31.362,31.362,0,0,0-7.3-10.253L100,18.75h-6.25a18.643,18.643,0,0,0-14.259,6.7A30.878,30.878,0,0,0,74.993,25H50A31.28,31.28,0,0,0,19.371,50H10.933a4.694,4.694,0,0,1-4.591-5.625,4.814,4.814,0,0,1,4.787-3.75h.2A1.176,1.176,0,0,0,12.5,39.453V35.547a1.176,1.176,0,0,0-1.172-1.172A11.19,11.19,0,0,0,.1,43.869,10.942,10.942,0,0,0,10.933,56.25h7.812a31.116,31.116,0,0,0,12.5,24.862V96.875A3.134,3.134,0,0,0,34.371,100h12.5A3.134,3.134,0,0,0,50,96.875V87.5H75v9.375A3.134,3.134,0,0,0,78.121,100h12.5a3.134,3.134,0,0,0,3.125-3.125V81.112A31.118,31.118,0,0,0,99.858,75h9.512a3.134,3.134,0,0,0,3.125-3.125v-25A3.134,3.134,0,0,0,109.371,43.75Zm-25,12.5A3.125,3.125,0,1,1,87.5,53.125,3.134,3.134,0,0,1,84.371,56.25ZM50,18.75H75c1.056,0,2.091.078,3.106.156,0-.059.019-.1.019-.156a18.75,18.75,0,0,0-37.5,0c0,.409.1.8.116,1.212a37.1,37.1,0,0,1,9.256-1.212Z" transform="translate(22.5 12.5)"/></g></svg>