<svg xmlns="http://www.w3.org/2000/svg" xmlns:xlink="http://www.w3.org/1999/xlink" width="61.838" height="57.871" viewBox="0 0 61.838 57.871"><defs><style>.a{fill:#f0f0f2;}.b{filter:url(#a);}</style><filter id="a" x="0" y="0" width="61.838" height="57.871" filterUnits="userSpaceOnUse"><feOffset dx="2" dy="10" input="SourceAlpha"/><feGaussianBlur stdDeviation="5" result="b"/><feFlood flood-opacity="0.2"/><feComposite operator="in" in2="b"/><feComposite in="SourceGraphic"/></filter></defs><g class="b" transform="matrix(1, 0, 0, 1, 0, 0)"><path class="a" d="M29.564,13.2H19.33V4.241A2.147,2.147,0,0,0,17.056,2.25H14.782a2.147,2.147,0,0,0-2.274,1.991V13.2H2.274A2.147,2.147,0,0,0,0,15.19v1.991a2.147,2.147,0,0,0,2.274,1.991H12.508V28.13a2.147,2.147,0,0,0,2.274,1.991h2.274A2.147,2.147,0,0,0,19.33,28.13V19.171H29.564a2.147,2.147,0,0,0,2.274-1.991V15.19A2.147,2.147,0,0,0,29.564,13.2Z" transform="translate(13 2.75)"/></g></svg>