<svg xmlns="http://www.w3.org/2000/svg" xmlns:xlink="http://www.w3.org/1999/xlink" width="137.239" height="137.252" viewBox="0 0 137.239 137.252"><defs><style>.a{fill:#94c120;}.b{filter:url(#a);}</style><filter id="a" x="0" y="0" width="137.239" height="137.252" filterUnits="userSpaceOnUse"><feOffset dx="2" dy="10" input="SourceAlpha"/><feGaussianBlur stdDeviation="7.5" result="b"/><feFlood flood-opacity="0.2"/><feComposite operator="in" in2="b"/><feComposite in="SourceGraphic"/></filter></defs><g class="b" transform="matrix(1, 0, 0, 1, 0, 0)"><path class="a" d="M90.984,79.759,73.022,61.8a4.321,4.321,0,0,0-3.062-1.261H67.021a37.459,37.459,0,1,0-6.485,6.485v2.936A4.321,4.321,0,0,0,61.8,73.02L79.759,90.982a4.307,4.307,0,0,0,6.109,0l5.1-5.1a4.345,4.345,0,0,0,.018-6.127ZM37.475,60.536A23.061,23.061,0,1,1,60.536,37.475,23.048,23.048,0,0,1,37.475,60.536Z" transform="translate(20.5 12.5)"/></g></svg>