<svg xmlns="http://www.w3.org/2000/svg" xmlns:xlink="http://www.w3.org/1999/xlink" width="114.99" height="115" viewBox="0 0 114.99 115"><defs><style>.a{filter:url(#a);}</style><filter id="a" x="0" y="0" width="114.99" height="115" filterUnits="userSpaceOnUse"><feOffset dx="2" dy="10" input="SourceAlpha"/><feGaussianBlur stdDeviation="7.5" result="b"/><feFlood flood-opacity="0.2"/><feComposite operator="in" in2="b"/><feComposite in="SourceGraphic"/></filter></defs><g class="a" transform="matrix(1, 0, 0, 1, 0, 0)"><path d="M69.038,60.52l-13.63-13.63a3.279,3.279,0,0,0-2.323-.957h-2.23a28.423,28.423,0,1,0-4.921,4.921v2.228a3.279,3.279,0,0,0,.957,2.323l13.63,13.63a3.268,3.268,0,0,0,4.635,0l3.869-3.869a3.3,3.3,0,0,0,.014-4.649Zm-40.6-14.586a17.5,17.5,0,1,1,17.5-17.5A17.489,17.489,0,0,1,28.435,45.934Z" transform="translate(20.5 12.5)"/></g></svg>