<svg xmlns="http://www.w3.org/2000/svg" xmlns:xlink="http://www.w3.org/1999/xlink" width="134.648" height="145" viewBox="0 0 134.648 145"><defs><style>.a,.b{fill:#94c120;}.a{fill-rule:evenodd;}.c{filter:url(#c);}.d{filter:url(#a);}</style><filter id="a" x="0" y="0" width="134.648" height="145" filterUnits="userSpaceOnUse"><feOffset dy="10" input="SourceAlpha"/><feGaussianBlur stdDeviation="7.5" result="b"/><feFlood flood-opacity="0.161"/><feComposite operator="in" in2="b"/><feComposite in="SourceGraphic"/></filter><filter id="c" x="67.025" y="13.165" width="57.795" height="100.925" filterUnits="userSpaceOnUse"><feOffset dy="10" input="SourceAlpha"/><feGaussianBlur stdDeviation="7.5" result="d"/><feFlood flood-opacity="0.2"/><feComposite operator="in" in2="d"/><feComposite in="SourceGraphic"/></filter></defs><g transform="translate(22.5 12.5)"><g class="d" transform="matrix(1, 0, 0, 1, -22.5, -12.5)"><path class="a" d="M30.65,11.066q-9.145,2.458-18.166,5.345a3.028,3.028,0,0,0-2.1,2.442C6.831,44.832,15.029,63.792,24.81,76.278A67.931,67.931,0,0,0,39.456,90.23a40.02,40.02,0,0,0,5.713,3.333,14.447,14.447,0,0,0,1.879.732,4.869,4.869,0,0,0,.649.163,3.827,3.827,0,0,0,.646-.154,15.675,15.675,0,0,0,1.879-.741,39.856,39.856,0,0,0,5.713-3.333A67.979,67.979,0,0,0,70.579,76.278c9.784-12.486,17.985-31.446,14.43-57.425a3.028,3.028,0,0,0-2.1-2.441c-4.175-1.333-11.212-3.505-18.166-5.345C57.637,9.193,51.1,7.792,47.7,7.792S37.761,9.19,30.65,11.066ZM28.943,4.627c6.954-1.843,14.332-3.5,18.753-3.5s11.8,1.659,18.753,3.5q9.3,2.5,18.48,5.434a9.7,9.7,0,0,1,6.687,7.893c3.819,27.979-5.04,48.714-15.781,62.433A74.607,74.607,0,0,1,59.714,95.718,46.284,46.284,0,0,1,53,99.626a13.85,13.85,0,0,1-5.307,1.5,13.85,13.85,0,0,1-5.307-1.5,46.052,46.052,0,0,1-6.714-3.908A74.613,74.613,0,0,1,19.56,80.384C8.81,66.666-.043,45.931,3.776,17.952a9.7,9.7,0,0,1,6.687-7.893q9.175-2.935,18.48-5.434Z" transform="translate(19.63 11.38)"/></g><g class="c" transform="matrix(1, 0, 0, 1, -22.5, -12.5)"><path class="b" d="M18,5.063c2.326,0,8.158,3.406,10.886,5.083.9.535,1.553,2.035,1.679,3.843,2.082,31.943-10.569,47-12.564,47Z" transform="translate(71.52 20.6)"/></g></g></svg>