<svg xmlns="http://www.w3.org/2000/svg" xmlns:xlink="http://www.w3.org/1999/xlink" width="95" height="95" viewBox="0 0 95 95">
  <defs>
    <filter id="twitter-square" x="0" y="0" width="95" height="95" filterUnits="userSpaceOnUse">
      <feOffset dx="3" dy="10" input="SourceAlpha"/>
      <feGaussianBlur stdDeviation="7.5" result="blur"/>
      <feFlood flood-opacity="0.247"/>
      <feComposite operator="in" in2="blur"/>
      <feComposite in="SourceGraphic"/>
    </filter>
  </defs>
  <g transform="matrix(1, 0, 0, 1, 0, 0)" filter="url(#twitter-square)">
    <path id="twitter-square-2" data-name="twitter-square" d="M44.643,2.25H5.357A5.359,5.359,0,0,0,0,7.607V46.893A5.359,5.359,0,0,0,5.357,52.25H44.643A5.359,5.359,0,0,0,50,46.893V7.607A5.359,5.359,0,0,0,44.643,2.25ZM39.186,19.974c.022.313.022.637.022.949,0,9.676-7.367,20.825-20.825,20.825A20.723,20.723,0,0,1,7.144,38.467a15.491,15.491,0,0,0,1.763.089,14.668,14.668,0,0,0,9.084-3.125,7.328,7.328,0,0,1-6.841-5.078,7.921,7.921,0,0,0,3.3-.133A7.32,7.32,0,0,1,8.6,23.033v-.089a7.326,7.326,0,0,0,3.3.927A7.3,7.3,0,0,1,8.64,17.777a7.222,7.222,0,0,1,.994-3.694,20.78,20.78,0,0,0,15.089,7.656,7.336,7.336,0,0,1,12.489-6.686,14.356,14.356,0,0,0,4.643-1.763,7.3,7.3,0,0,1-3.214,4.029,14.582,14.582,0,0,0,4.219-1.138,15.419,15.419,0,0,1-3.671,3.8Z" transform="translate(19.5 10.25)" fill="#1b2920"/>
  </g>
</svg>
